<?xml version="1.0" encoding="UTF-8"?>
<svg width="20px" height="30px" viewBox="0 0 20 30" version="1.1" xmlns="http://www.w3.org/2000/svg" xmlns:xlink="http://www.w3.org/1999/xlink">
    <!-- Generator: Sketch 59.1 (86144) - https://sketch.com -->
    <title>Group 6</title>
    <desc>Created with Sketch.</desc>
    <defs>
        <polygon id="path-1" points="0.0254814815 0.368148148 19.3691852 0.368148148 19.3691852 22.3866296 0.0254814815 22.3866296"></polygon>
    </defs>
    <g id="Symbols" stroke="none" stroke-width="1" fill="none" fill-rule="evenodd">
        <g id="UI/Footer" transform="translate(-135.000000, -20.000000)">
            <g id="Group-6" transform="translate(135.000000, 20.000000)">
                <g id="Group-3" transform="translate(0.000000, 0.002222)">
                    <mask id="mask-2" fill="white">
                        <use xlink:href="#path-1"></use>
                    </mask>
                    <g id="Clip-2"></g>
                    <path d="M19.1743704,1.44181481 C19.3043704,1.71477778 19.3691852,1.98144444 19.3691852,2.24181481 C19.3691852,2.64514815 19.2132593,3.02959259 18.901037,3.39366667 L5.84214815,18.7362593 L17.5154815,18.7362593 C18.0225185,18.7362593 18.4521481,18.9184815 18.8032593,19.2829259 C19.1677037,19.6344074 19.3499259,20.0629259 19.3499259,20.5710741 C19.3499259,21.0788519 19.1677037,21.5081111 18.8032593,21.8592222 C18.4521481,22.2107037 18.0225185,22.3866296 17.5154815,22.3866296 L1.87992593,22.3866296 C1.09881481,22.3866296 0.545481481,22.0351481 0.220296296,21.3321852 C0.0906666667,21.0592222 0.0254814815,20.7925556 0.0254814815,20.5318148 C0.0254814815,20.1288519 0.181777778,19.7444074 0.49362963,19.3803333 L13.5721481,4.03774074 L1.87992593,4.03774074 C1.37214815,4.03774074 0.942518519,3.85588889 0.591407407,3.49144444 C0.226962963,3.13959259 0.0447407407,2.71033333 0.0447407407,2.20292593 C0.0447407407,1.69588889 0.226962963,1.26588889 0.591407407,0.914407407 C0.942518519,0.550703704 1.37214815,0.368111111 1.87992593,0.368111111 L17.5154815,0.368111111 C18.2958519,0.368111111 18.8488148,0.725518519 19.1743704,1.44181481" id="Fill-1" fill="#111F28" mask="url(#mask-2)"></path>
                </g>
                <path d="M19.3053333,27.8318519 C19.3053333,28.33 19.1453333,28.7511111 18.8260741,29.0955556 C18.5182963,29.452963 18.1416296,29.6318519 17.6968148,29.6318519 L1.59162963,29.6318519 C1.14681481,29.6318519 0.770148148,29.452963 0.46237037,29.0955556 C0.154222222,28.7511111 0.000148148148,28.33 0.000148148148,27.8318519 C0.000148148148,27.3340741 0.154222222,26.912963 0.46237037,26.5681481 C0.770148148,26.2107407 1.14681481,26.0322222 1.59162963,26.0322222 L17.6968148,26.0322222 C18.1416296,26.0322222 18.5182963,26.2107407 18.8260741,26.5681481 C19.1453333,26.912963 19.3053333,27.3340741 19.3053333,27.8318519" id="Fill-4" fill="#00D86C"></path>
            </g>
        </g>
    </g>
</svg>